<svg width="56" height="56" viewBox="0 0 56 56" fill="none" xmlns="http://www.w3.org/2000/svg">
<path d="M3.56045 48.0992V48.5992H4.06045H18.2052H18.7052V48.0992V47.4986V47.1076L18.3257 47.0133L17.8549 46.8964C17.2162 46.7004 16.7779 46.3953 16.4944 46.0041C16.2081 45.6091 16.0455 45.079 16.0455 44.3757V23.7245C17.0282 22.9924 17.9782 22.4932 18.8954 22.2128L18.9036 22.2103L18.9118 22.2075C19.9197 21.8608 20.8313 21.6941 21.6507 21.6941C22.9753 21.6941 23.7359 21.9892 24.1149 22.4237L24.121 22.4306L24.1273 22.4373C24.5524 22.8899 24.838 23.819 24.838 25.398V44.2556C24.838 44.9584 24.6755 45.4958 24.3863 45.9028C24.1005 46.3052 23.6598 46.6237 23.0222 46.8379L22.316 47.0133L21.9365 47.1076V47.4986V48.0992V48.5992H22.4365H36.5812H37.0812V48.0992V47.4986V47.1513L36.7557 47.0301L36.2722 46.8499L36.2565 46.8441L36.2404 46.8393C35.4966 46.6176 35.0542 46.3074 34.8203 45.9588C34.5706 45.5868 34.4215 45.054 34.4215 44.3156V27.3799C34.4215 24.2206 33.6161 21.7822 31.9093 20.1719C30.2646 18.5821 28.0543 17.8115 25.338 17.8115C23.2906 17.8115 21.3995 18.2478 19.673 19.1259C18.3351 19.7908 17.0653 20.577 15.8641 21.4843V15.0155L16.1057 6.55477L16.1144 6.25187L15.8498 6.10404L14.8827 5.56353L14.7114 5.46784L14.5208 5.51411L3.88206 8.09651L3.5 8.18925V8.5824V9.18296V9.56775L3.87195 9.66629L4.77866 9.90651L4.77865 9.90657L4.78618 9.90844C5.55011 10.0982 5.95138 10.3584 6.13005 10.612L6.51652 10.3397L6.13006 10.612C6.32362 10.8867 6.46193 11.3821 6.46193 12.1858V44.2556C6.46193 44.9356 6.3008 45.4568 6.01303 45.8539C5.72512 46.2512 5.27832 46.5686 4.62863 46.7837L4.78443 47.2542L4.62862 46.7837L3.90325 47.024L3.56045 47.1375V47.4986V48.0992ZM42.7618 47.8533C43.8652 48.9495 45.2219 49.5 46.8015 49.5C48.3811 49.5 49.7379 48.9495 50.8412 47.8533C51.9417 46.7599 52.5 45.4317 52.5 43.8952C52.5 42.3594 51.9424 41.0148 50.8481 39.8841C49.7463 38.7457 48.3875 38.1704 46.8015 38.1704C45.2156 38.1704 43.8567 38.7457 42.7549 39.8841C41.6606 41.0148 41.103 42.3594 41.103 43.8952C41.103 45.4317 41.6613 46.7599 42.7618 47.8533Z" fill="#EAEBEE" stroke="#717171"/>
</svg>
