<svg width="56" height="56" viewBox="0 0 56 56" fill="none" xmlns="http://www.w3.org/2000/svg">
<path d="M6.05541 46.8425V46.2884L6.72033 46.0668C8.05018 45.6235 8.7151 44.7 8.7151 43.2963V13.7072C8.7151 12.9315 8.58581 12.3589 8.32723 11.9895C8.06865 11.6201 7.56995 11.3431 6.83115 11.1584L6 10.9367V10.3826L15.7522 8L16.6388 8.49869L16.4171 16.3115V23.2378C17.71 22.1665 19.0953 21.2615 20.5729 20.5227C22.0874 19.747 23.7497 19.3591 25.5598 19.3591C27.9609 19.3591 29.8633 20.0425 31.267 21.4093C32.7077 22.776 33.428 24.8816 33.428 27.726V43.3517C33.428 44.0905 33.5758 44.6815 33.8713 45.1248C34.1668 45.5681 34.684 45.9006 35.4228 46.1222L35.8661 46.2884V46.8425H22.9001V46.2884L23.565 46.1222C24.8949 45.6789 25.5598 44.7369 25.5598 43.2963V25.8975C25.5598 24.4199 25.3012 23.404 24.784 22.8499C24.3038 22.2958 23.4357 22.0188 22.1798 22.0188C21.3671 22.0188 20.4805 22.185 19.5201 22.5175C18.5596 22.813 17.5807 23.3486 16.5833 24.1244V43.4071C16.5833 44.8478 17.2483 45.7713 18.5781 46.1776L19.0214 46.2884V46.8425H6.05541Z" fill="#EAEBEE"/>
<path d="M45.2347 47.6737C43.9049 47.6737 42.7782 47.2119 41.8547 46.2884C40.9312 45.3649 40.4694 44.2567 40.4694 42.9638C40.4694 41.6709 40.9312 40.5442 41.8547 39.5838C42.7782 38.6234 43.9049 38.1431 45.2347 38.1431C46.5646 38.1431 47.6912 38.6234 48.6147 39.5838C49.5382 40.5442 50 41.6709 50 42.9638C50 44.2567 49.5382 45.3649 48.6147 46.2884C47.6912 47.2119 46.5646 47.6737 45.2347 47.6737Z" fill="#EAEBEE"/>
</svg>
